<?xml version="1.0" standalone="no"?>
<!DOCTYPE svg PUBLIC "-//W3C//DTD SVG 20010904//EN"
 "http://www.w3.org/TR/2001/REC-SVG-20010904/DTD/svg10.dtd">
<svg version="1.0" xmlns="http://www.w3.org/2000/svg"
 width="260.000000pt" height="260.000000pt" viewBox="0 0 260.000000 260.000000"
 preserveAspectRatio="xMidYMid meet">
<metadata>
Created by potrace 1.11, written by Peter Selinger 2001-2013
</metadata>
<g transform="translate(0.000000,260.000000) scale(0.100000,-0.100000)"
fill="#000000" stroke="none">
<path d="M1341 1891 c-11 -43 -27 -106 -35 -143 l-6 -28 108 1 109 1 23 92
c12 50 23 95 24 101 1 6 -42 10 -107 10 l-107 1 -9 -35z"/>
<path d="M749 1858 c-35 -23 -120 -78 -189 -123 -69 -44 -163 -105 -210 -135
-201 -131 -276 -179 -286 -188 -12 -11 -18 -191 -6 -208 11 -17 754 -496 759
-490 3 3 6 58 7 123 1 117 1 118 -28 146 -15 15 -34 27 -41 27 -7 0 -15 4 -17
8 -2 5 -29 24 -60 43 -184 109 -377 235 -375 244 3 9 485 318 511 328 9 3 13
253 5 262 -3 2 -34 -14 -70 -37z"/>
<path d="M1795 1768 c0 -73 5 -133 11 -135 24 -9 508 -320 510 -328 3 -8 -402
-268 -506 -326 -11 -6 -14 -35 -15 -138 -1 -153 -9 -148 113 -68 43 29 85 57
94 62 96 59 234 151 236 157 2 4 8 8 13 8 5 0 42 22 82 48 40 27 109 73 155
102 l82 53 0 102 0 101 -92 59 c-129 82 -368 238 -456 296 -41 27 -75 49 -77
49 -2 0 -34 20 -72 45 -37 25 -71 45 -74 45 -3 0 -5 -59 -4 -132z"/>
<path d="M1283 1614 c-14 -38 -228 -904 -223 -905 18 -5 181 -4 188 0 6 5 137
504 157 601 2 8 11 44 20 80 9 36 18 72 20 80 2 8 10 43 19 76 9 34 16 67 16
73 0 7 -32 11 -95 11 -78 0 -97 -3 -102 -16z"/>
</g>
</svg>
